<svg id="Layer_1" data-name="Layer 1" xmlns="http://www.w3.org/2000/svg" viewBox="0 0 3672.9 598.78"><path d="M124.21,353a48.32,48.32,0,0,0,0-96.64"/><path d="M229.37,445.89a48.32,48.32,0,0,0-83.69-48.32"/><path d="M366.83,397.57a48.32,48.32,0,0,0-83.7,48.32"/><path d="M388.29,256.36a48.32,48.32,0,0,0,0,96.64"/><path d="M283.13,163.46a48.32,48.32,0,0,0,83.7,48.32"/><path d="M145.68,211.78a48.32,48.32,0,0,0,83.69-48.32"/><path d="M555.55,188.31c0-5.44-2.51-7.94-7.94-7.94H508.74c-5.43,0-8.36,2.5-8.36,7.94V424.73c0,5.44,2.93,7.94,8.36,7.94h38.87c5.43,0,7.94-2.5,7.94-7.94V231.51h-39.7l39.7-22.72Z"/><path d="M961.53,180.37H923.77c-5.43,0-7.94,2.5-7.94,7.94V376.53c0,2.51-1.11,3.62-2.92,3.62H909.7A5,5,0,0,1,905,377.5l-134.17-176C757.15,183.15,752,180.37,729,180.37H697.24c-22,0-32.46,8.22-32.46,37.47V424.73c0,5.44,2.92,7.94,8.36,7.94h37.75c5.44,0,8-2.5,8-7.94V236.51c0-2.51.83-3.62,2.92-3.62H725c2.22,0,3.34.84,4.73,2.65l134.45,176c14.48,19.08,19.92,21.17,41.93,21.17H937c22,0,32.46-8.22,32.46-37.47V188.31C969.47,182.87,967,180.37,961.53,180.37Z"/><path d="M1178.87,231.91h160.49c5.3,0,8-2.92,8-8.36V188.31c0-5.44-2.65-7.94-8-7.94H1176.78c-72.87,0-101,25.91-101,95.15v62c0,69.24,28.14,95.15,101,95.15h162.58c5.3,0,8-2.5,8-7.94V389.49c0-5.44-2.65-7.95-8-7.95H1178.87c-37.2,0-47.93-11.14-47.93-49.45V281C1130.94,242.64,1141.67,231.91,1178.87,231.91Z"/><path d="M1502.23,188.31c0-5.44-2.51-7.94-7.94-7.94h-39c-5.43,0-8.22,2.5-8.22,7.94V424.73c0,5.44,2.79,7.94,8.22,7.94h39c5.43,0,7.94-2.5,7.94-7.94V231.51h-43.47l43.47-23.84Z"/><path d="M1901.24,423.76l-61.58-76.49c37.76-6.83,53.64-31.07,53.64-72.17V254.62c0-48.76-22.29-74.25-77.46-74.25H1622.18c-7.24,0-10.86,3.62-10.86,10.72V424.73c0,5.44,2.92,7.94,8.36,7.94h38.87c5.43,0,7.94-2.5,7.94-7.94V353H1783l57,75.1c2.23,3.2,4,4.59,10.17,4.59h46.53C1903.05,432.67,1903.47,426.27,1901.24,423.76Zm-63.11-146.85c0,21.74-8.92,32.19-33.44,32.19h-138.2V234c0-2.92,1.53-4.32,4.73-4.32h133.47c24.52,0,33.44,10.45,33.44,32.19Z"/><path d="M2244.39,381.54h-146c-37.2,0-47.93-11.14-47.93-49.45V188.31c0-5.44-2.51-7.94-7.94-7.94h-39c-5.43,0-8.22,2.5-8.22,7.94V337.52c0,69.24,28.14,95.15,101,95.15h148.1c5.43,0,7.94-2.5,7.94-7.94V389.49C2252.33,384.05,2249.82,381.54,2244.39,381.54Z"/><path d="M2666.94,424.45l-119.4-216.78c-11.84-21.59-23.12-27.3-41.51-27.3h-21.18c-15.19,0-26,5.71-37.89,27.3L2328.67,424.45c-2.5,4.6-1.39,8.22,4.74,8.22h46.81c4.32,0,6.55-1,8.36-4.59l24.8-46.54h169.55l25.64,46.54c1.67,3.62,3.48,4.59,8.22,4.59h45.83C2668.33,432.67,2669.45,429.05,2666.94,424.45Zm-230.85-84.7L2492.79,234a4,4,0,0,1,3.9-2.5h2.23c1.81,0,2.79.69,3.9,2.5l57.4,105.75Z"/><path d="M3022.62,303c15.19-10.17,23.13-25.36,23.13-45.84V239.86c0-40.13-18.81-59.49-68.54-59.49H2769.48c-7.1,0-10.73,3.62-10.73,10.72V422c0,7.1,3.63,10.72,10.73,10.72h214.27c47.93,0,63.81-24.1,63.81-62.27v-21C3047.56,328.18,3039.62,312.58,3022.62,303Zm-208.7-68.27c0-3.2,1.4-4.6,4.6-4.6h147.54c18.81,0,26.75,6.83,26.75,21.6V264c0,14.07-7.24,21.31-31.07,21.31H2813.92Zm179.17,126.22c0,15.19-7.52,22-26.61,22h-148c-3.2,0-4.6-1.4-4.6-4.6V324.56h147.82c23.83,0,31.35,7.94,31.35,22.71Z"/><path d="M3356,283H3220.88c-12.68,0-18.81-6.82-18.81-20.2V250.58c0-12.54,5.43-20.2,19.09-20.2h180.69c5.44,0,7.94-2.51,7.94-7.94V188.31c0-5.44-2.5-7.94-7.94-7.94H3210.71c-43.61,0-63.81,23.68-63.81,58.65v26.33c0,39.71,21.59,62.14,63.11,62.14h135.28c12.54,0,18.67,6.82,18.67,20.2v14.77c0,12.54-5.44,20.2-19.09,20.2H3155.54c-5.44,0-8.22,2.51-8.22,7.94v34.13c0,5.44,2.78,7.94,8.22,7.94h199.78c43.61,0,63.81-23.68,63.81-58.79V345C3419.13,305.47,3397.53,283,3356,283Z"/></svg>